<svg width="189" height="222" viewBox="0 0 189 222" fill="none" xmlns="http://www.w3.org/2000/svg">
<path fill-rule="evenodd" clip-rule="evenodd" d="M20.9845 53L8.63703 214H180.464L170.016 53H20.9845ZM177.514 45H13.5746L0 222H189L177.514 45Z" fill="#4F4E4E"/>
<path fill-rule="evenodd" clip-rule="evenodd" d="M94.5 15.5C70.5007 15.5 51.5 34.2163 51.5 56.753V67C51.5 71.1421 48.1421 74.5 44 74.5C39.8579 74.5 36.5 71.1421 36.5 67V56.753C36.5 25.4386 62.7186 0.5 94.5 0.5C126.281 0.5 152.5 25.4386 152.5 56.753V67C152.5 71.1421 149.142 74.5 145 74.5C140.858 74.5 137.5 71.1421 137.5 67V56.753C137.5 34.2163 118.499 15.5 94.5 15.5Z" fill="#4F4E4E"/>
<path d="M161 126C161 161.899 131.899 191 96 191C60.1015 191 31 161.899 31 126C31 90.1015 60.1015 61 96 61C131.899 61 161 90.1015 161 126Z" fill="#4F4E4E"/>
</svg>
